<svg id="Camada_1" data-name="Camada 1" xmlns="http://www.w3.org/2000/svg" xmlns:xlink="http://www.w3.org/1999/xlink" viewBox="0 0 997.76 154.54"><defs><style>.cls-1{fill:none;}.cls-2{fill:#fff;}.cls-3{clip-path:url(#clip-path);}.cls-4{fill:#41ad50;}.cls-5{fill:#40ad50;}.cls-6{fill:#3eac50;}.cls-7{fill:#3dac4f;}.cls-8{fill:#3dac4e;}.cls-9{fill:#3bac4e;}.cls-10{fill:#3aac4e;}.cls-11{fill:#38ab4e;}.cls-12{fill:#37ab4e;}.cls-13{fill:#35ab4e;}.cls-14{fill:#33aa4e;}.cls-15{fill:#32aa4e;}.cls-16{fill:#30aa4e;}.cls-17{fill:#2faa4e;}.cls-18{fill:#2eaa4e;}.cls-19{fill:#2eaa4d;}.cls-20{fill:#2da94d;}.cls-21{fill:#2ba94c;}.cls-22{fill:#29a94c;}.cls-23{fill:#27a94c;}.cls-24{fill:#22a84c;}.cls-25{fill:#1fa84b;}.cls-26{fill:#1da84b;}.cls-27{fill:#1ba74b;}.cls-28{fill:#1aa74b;}.cls-29{fill:#18a64b;}.cls-30{fill:#17a54a;}.cls-31{fill:#14a44a;}.cls-32{fill:#13a34a;}.cls-33{fill:#0fa14a;}.cls-34{fill:#10a04a;}.cls-35{fill:#0f9f49;}.cls-36{fill:#109e49;}.cls-37{fill:#109d49;}.cls-38{fill:#129c49;}.cls-39{fill:#139a48;}.cls-40{fill:#149948;}.cls-41{fill:#159848;}.cls-42{fill:#169748;}.cls-43{fill:#169549;}.cls-44{fill:#189449;}.cls-45{fill:#189349;}.cls-46{fill:#1a9148;}.cls-47{fill:#1a9047;}.cls-48{fill:#1b8e47;}.cls-49{fill:#1a8e48;}.cls-50{fill:#1b8b48;}.cls-51{fill:#1b8a48;}.cls-52{fill:#1b8848;}.cls-53{fill:#1c8747;}.cls-54{fill:#1c8648;}.cls-55{fill:#1d8448;}.cls-56{fill:#1d8347;}.cls-57{fill:#1d8147;}.cls-58{fill:#1e8047;}.cls-59{fill:#1e7e47;}.cls-60{fill:#1f7b46;}.cls-61{fill:#207b46;}.cls-62{fill:#217847;}.cls-63{fill:#227746;}.cls-64{fill:#217546;}.cls-65{fill:#227446;}.cls-66{fill:#217245;}.cls-67{fill:#227046;}.cls-68{fill:#236e46;}.cls-69{fill:#246c46;}.cls-70{fill:#246a46;}.cls-71{fill:#246845;}.cls-72{fill:#256645;}.cls-73{fill:#256444;}.cls-74{fill:#266244;}.cls-75{fill:#266044;}.cls-76{fill:#275e43;}.cls-77{fill:#275c43;}.cls-78{fill:#285943;}.cls-79{clip-path:url(#clip-path-2);}</style><clipPath id="clip-path"><path class="cls-1" d="M.39,60.33l0,0a7,7,0,0,0-.35,2c0-.1,0-.19,0-.29a6.87,6.87,0,0,1,.21-1.72h0l.29-.87L19.1,3.61c.36-2,1.6-3.57,3.08-3.57L34.81,0C36.58,0,38,2.17,38,4.85a6.67,6.67,0,0,1-.49,2.56l-15,55-10.36-38Z"/></clipPath><clipPath id="clip-path-2"><path class="cls-1" d="M997.38,59.81v0a6.76,6.76,0,0,1,.35,2c0-.1,0-.19,0-.29a6.65,6.65,0,0,0-.21-1.7v0l-.29-.86L978.83,3.58c-.36-2-1.59-3.54-3.06-3.54L963.26,0c-1.76,0-3.19,2.15-3.19,4.8a6.81,6.81,0,0,0,.48,2.55L975.4,61.82l10.26-37.66Z"/></clipPath></defs><path class="cls-2" d="M234.08,102A42.22,42.22,0,0,1,228,79.6a42.28,42.28,0,0,1,6.07-22.44,44.35,44.35,0,0,1,16.37-15.78,46.43,46.43,0,0,1,23.26-5.82,47,47,0,0,1,23.35,5.82,43.61,43.61,0,0,1,16.37,15.78,42.76,42.76,0,0,1,6,22.44,42.7,42.7,0,0,1-6,22.43,43.56,43.56,0,0,1-16.37,15.79,47,47,0,0,1-23.35,5.82,46.43,46.43,0,0,1-23.26-5.82A44.3,44.3,0,0,1,234.08,102Zm62.23-8.22a29.69,29.69,0,0,0,3.32-14.21,29.69,29.69,0,0,0-3.32-14.21,24.46,24.46,0,0,0-9.22-9.72,27.39,27.39,0,0,0-26.76,0,24.46,24.46,0,0,0-9.22,9.72,29.69,29.69,0,0,0-3.32,14.21,29.69,29.69,0,0,0,3.32,14.21,24.46,24.46,0,0,0,9.22,9.72,27.39,27.39,0,0,0,26.76,0A24.46,24.46,0,0,0,296.31,93.81Z"/><path class="cls-2" d="M354.4,123.64h0a19.13,19.13,0,0,1-19.13-19.13V8.89a8,8,0,0,1,2.85-6.63A11.52,11.52,0,0,1,345.5,0a25.25,25.25,0,0,1,4.87.5,14.23,14.23,0,0,1,4,1.35Z"/><path class="cls-2" d="M376.32,102a42.3,42.3,0,0,1-6.06-22.43,42.36,42.36,0,0,1,6.06-22.44,44.43,44.43,0,0,1,16.37-15.78,49.59,49.59,0,0,1,46.62,0,43.59,43.59,0,0,1,16.36,15.78,42.77,42.77,0,0,1,6,22.44,42.71,42.71,0,0,1-6,22.43,43.54,43.54,0,0,1-16.36,15.79,49.59,49.59,0,0,1-46.62,0A44.38,44.38,0,0,1,376.32,102Zm62.24-8.22a29.8,29.8,0,0,0,3.32-14.21,29.8,29.8,0,0,0-3.32-14.21,24.42,24.42,0,0,0-9.23-9.72,27.37,27.37,0,0,0-26.75,0,24.4,24.4,0,0,0-9.22,9.72A29.69,29.69,0,0,0,390,79.6a29.69,29.69,0,0,0,3.33,14.21,24.4,24.4,0,0,0,9.22,9.72,27.37,27.37,0,0,0,26.75,0A24.42,24.42,0,0,0,438.56,93.81Z"/><path class="cls-2" d="M475.78,83.59q0-15.12,5.4-25.84A38.68,38.68,0,0,1,496.39,41.3q9.8-5.74,23.26-5.74,13.62,0,23.93,5.65A41.32,41.32,0,0,1,559.7,56.83a44.34,44.34,0,0,1,5.82,22.77,45.1,45.1,0,0,1-5.65,22.6,42.06,42.06,0,0,1-15.29,15.7A41.5,41.5,0,0,1,523,123.64a37.91,37.91,0,0,1-16.36-3.41,32.2,32.2,0,0,1-11.89-9.39V135.6a18.94,18.94,0,0,1-18.94,18.94Zm63,15.78q7.14-7.47,7.15-19.61t-7.15-19.6q-7.14-7.48-18.44-7.48t-18.53,7.48q-7.23,7.47-7.23,19.6t7.23,19.61q7.23,7.48,18.53,7.48T538.76,99.37Z"/><path class="cls-2" d="M622.51,123.64a47.59,47.59,0,0,1-23.18-5.49,39.79,39.79,0,0,1-15.7-15.2Q578,93.23,578,80.26a45.54,45.54,0,0,1,5.81-23.18,41.85,41.85,0,0,1,16-15.78,46.82,46.82,0,0,1,23.35-5.74q16,0,25.84,7.4t9.89,20.19q0,13-11.55,19.44t-36.64,6.48c-1.56,0-3.47,0-5.74-.08s-5.74-.14-8-.25c.88,5.76,5.07,10.36,10.11,13.79s11.39,5.15,19,5.15a47.59,47.59,0,0,0,12.2-1.53,14.18,14.18,0,0,1,16.31,7l1.07,2a47.17,47.17,0,0,1-9.14,4.32,69,69,0,0,1-11.8,3.08A74,74,0,0,1,622.51,123.64Zm.34-73.45c-7.31,0-12.19,1-17.2,5.41-.67.6-5.82,3.94-8.07,15.49A49.23,49.23,0,0,0,597,88.74c1.88.11,7.64-9.41,9.65-10a33.54,33.54,0,0,1,9.54-1.3c19.17,0,24.24-5.83,24.24-14.58a10.67,10.67,0,0,0-4.9-9.23Q630.66,50.19,622.85,50.19Z"/><path class="cls-2" d="M748.48,96.22q0,13-10.56,20.19t-27.83,7.23a97.72,97.72,0,0,1-16.2-1.42,92.55,92.55,0,0,1-15.29-3.82,41,41,0,0,1-10.55-5.07l7.14-12.79a55,55,0,0,0,14.63,5.81,74.17,74.17,0,0,0,19.27,2.5q19.6,0,19.61-10,0-8.47-16-10.47l-17-2.16q-12.63-1.66-19.45-7.65T669.54,62q0-13,10.14-19.69t29.41-6.73A79.14,79.14,0,0,1,727,37.39a36.63,36.63,0,0,1,12.3,4.9c3,2.05,4.48,4.41,4.48,7.06a9.43,9.43,0,0,1-1.74,5.16A10.65,10.65,0,0,1,738,58.33a20.63,20.63,0,0,0-7.15-4.07,68.16,68.16,0,0,0-11.3-3.16,65.16,65.16,0,0,0-12.63-1.25q-8.8,0-13.71,2.58T688.32,60a7.3,7.3,0,0,0,3.41,6.23q3.4,2.41,10.71,3.41l17,2.16Q748.47,75.45,748.48,96.22Z"/><path class="cls-2" d="M899.36,123.64h-5.23a13.71,13.71,0,0,1-13.71-13.72V76.28q0-10.64-4.82-16t-14-5.32q-9.81,0-15,6.07t-5.23,17.2v45.37h-19V78.27q0-11.13-5.06-17.2T802.48,55q-9.13,0-14.21,5.49T783.2,76.44v33.49a13.71,13.71,0,0,1-13.71,13.71h-5.23V70a31.15,31.15,0,0,1,4.57-17,30,30,0,0,1,12.8-11.14,44.33,44.33,0,0,1,19.19-3.9q21.6,0,31.41,15.12Q842,37.89,863.14,37.89a43.38,43.38,0,0,1,18.94,3.9,30.22,30.22,0,0,1,12.71,11.05,30.78,30.78,0,0,1,4.57,17Z"/><path class="cls-2" d="M92.12,21.18a11.44,11.44,0,0,1-3.24-8.31,11.41,11.41,0,0,1,3.24-8.31,11.82,11.82,0,0,1,16.45,0,11.41,11.41,0,0,1,3.24,8.31,11.44,11.44,0,0,1-3.24,8.31,11.85,11.85,0,0,1-16.45,0ZM109.83,123.6h0a19,19,0,0,1-19-18.95V49a7.91,7.91,0,0,1,2.83-6.57A11.42,11.42,0,0,1,101,40.18a24,24,0,0,1,4.82.5,13.76,13.76,0,0,1,4,1.33Z"/><path class="cls-2" d="M206.27,54.5a33.83,33.83,0,0,0-14.12-12.38q-9.06-4.4-21.36-4.4a48.6,48.6,0,0,0-21.27,4.4,32.9,32.9,0,0,0-19.27,31v31.41h18.94V77.93q0-23.1,21.6-23.1,10.64,0,16.12,5.9t5.49,17.2v26.59a18.94,18.94,0,0,0,18.94,18.94V73.11A34,34,0,0,0,206.27,54.5Z"/><g class="cls-3"><polyline class="cls-4" points="38.02 28.25 0 11.03 0 0 38.02 0 38.02 28.25"/><polyline class="cls-4" points="38.02 28.69 0 11.47 0 11.03 38.02 28.25 38.02 28.69"/><polyline class="cls-4" points="38.02 29.12 0 11.9 0 11.47 38.02 28.69 38.02 29.12"/><polyline class="cls-4" points="38.02 29.56 0 12.34 0 11.9 38.02 29.12 38.02 29.56"/><polyline class="cls-4" points="38.02 29.99 0 12.78 0 12.34 38.02 29.56 38.02 29.99"/><polyline class="cls-4" points="38.02 30.43 0 13.21 0 12.78 38.02 29.99 38.02 30.43"/><polyline class="cls-4" points="38.02 30.86 0 13.65 0 13.21 38.02 30.43 38.02 30.86"/><polyline class="cls-4" points="38.02 31.3 0 14.08 0 13.65 38.02 30.86 38.02 31.3"/><polyline class="cls-4" points="38.02 31.73 0 14.52 0 14.08 38.02 31.3 38.02 31.73"/><polyline class="cls-4" points="38.02 32.17 0 14.95 0 14.52 38.02 31.73 38.02 32.17"/><polyline class="cls-4" points="38.02 32.6 0 15.39 0 14.95 38.02 32.17 38.02 32.6"/><polyline class="cls-4" points="38.02 33.04 0 15.82 0 15.39 38.02 32.6 38.02 33.04"/><polyline class="cls-4" points="38.02 33.48 0 16.26 0 15.82 38.02 33.04 38.02 33.48"/><polyline class="cls-4" points="38.02 33.91 0 16.69 0 16.26 38.02 33.48 38.02 33.91"/><polyline class="cls-4" points="38.02 34.35 0 17.13 0 16.69 38.02 33.91 38.02 34.35"/><polyline class="cls-5" points="38.02 34.78 0 17.57 0 17.13 38.02 34.35 38.02 34.78"/><polyline class="cls-5" points="38.02 35.22 0 18 0 17.57 38.02 34.78 38.02 35.22"/><polyline class="cls-5" points="38.02 35.65 0 18.44 0 18 38.02 35.22 38.02 35.65"/><polyline class="cls-5" points="38.02 36.09 0 18.87 0 18.44 38.02 35.65 38.02 36.09"/><polyline class="cls-5" points="38.02 36.52 0 19.31 0 18.87 38.02 36.09 38.02 36.52"/><polyline class="cls-5" points="38.02 36.96 0 19.74 0 19.31 38.02 36.52 38.02 36.96"/><polyline class="cls-5" points="38.02 37.4 0 20.18 0 19.74 38.02 36.96 38.02 37.4"/><polyline class="cls-6" points="38.02 37.83 0 20.61 0 20.18 38.02 37.4 38.02 37.83"/><polyline class="cls-6" points="38.02 38.27 0 21.05 0 20.61 38.02 37.83 38.02 38.27"/><polyline class="cls-7" points="38.02 38.7 0 21.48 0 21.05 38.02 38.27 38.02 38.7"/><polyline class="cls-7" points="38.02 39.14 0 21.92 0 21.48 38.02 38.7 38.02 39.14"/><polyline class="cls-8" points="38.02 39.57 0 22.36 0 21.92 38.02 39.14 38.02 39.57"/><polyline class="cls-9" points="38.02 40.01 0 22.79 0 22.36 38.02 39.57 38.02 40.01"/><polyline class="cls-9" points="38.02 40.44 0 23.23 0 22.79 38.02 40.01 38.02 40.44"/><polyline class="cls-10" points="38.02 40.88 0 23.66 0 23.23 38.02 40.44 38.02 40.88"/><polyline class="cls-10" points="38.02 41.31 0 24.1 0 23.66 38.02 40.88 38.02 41.31"/><polyline class="cls-11" points="38.02 41.75 0 24.53 0 24.1 38.02 41.31 38.02 41.75"/><polyline class="cls-12" points="38.02 42.19 0 24.97 0 24.53 38.02 41.75 38.02 42.19"/><polyline class="cls-12" points="38.02 42.62 0 25.4 0 24.97 38.02 42.19 38.02 42.62"/><polyline class="cls-13" points="38.02 43.06 0 25.84 0 25.4 38.02 42.62 38.02 43.06"/><polyline class="cls-13" points="38.02 43.49 0 26.27 0 25.84 38.02 43.06 38.02 43.49"/><polyline class="cls-14" points="38.02 43.93 0 26.71 0 26.27 38.02 43.49 38.02 43.93"/><polyline class="cls-15" points="38.02 44.36 0 27.14 0 26.71 38.02 43.93 38.02 44.36"/><polyline class="cls-15" points="38.02 44.8 0 27.58 0 27.14 38.02 44.36 38.02 44.8"/><polyline class="cls-16" points="38.02 45.23 0 28.02 0 27.58 38.02 44.8 38.02 45.23"/><polyline class="cls-17" points="38.02 45.67 0 28.45 0 28.02 38.02 45.23 38.02 45.67"/><polyline class="cls-18" points="38.02 46.1 0 28.89 0 28.45 38.02 45.67 38.02 46.1"/><polyline class="cls-19" points="38.02 46.54 0 29.32 0 28.89 38.02 46.1 38.02 46.54"/><polyline class="cls-20" points="38.02 46.98 0 29.76 0 29.32 38.02 46.54 38.02 46.98"/><polyline class="cls-21" points="38.02 47.41 0 30.19 0 29.76 38.02 46.98 38.02 47.41"/><polyline class="cls-22" points="38.02 47.84 0 30.63 0 30.19 38.02 47.41 38.02 47.84"/><polyline class="cls-23" points="38.02 48.28 0 31.06 0 30.63 38.02 47.84 38.02 48.28"/><polyline class="cls-24" points="38.02 48.72 0 31.5 0 31.06 38.02 48.28 38.02 48.72"/><polyline class="cls-24" points="38.02 49.15 0 31.93 0 31.5 38.02 48.72 38.02 49.15"/><polyline class="cls-25" points="38.02 49.59 0 32.37 0 31.93 38.02 49.15 38.02 49.59"/><polyline class="cls-26" points="38.02 50.02 0 32.8 0 32.37 38.02 49.59 38.02 50.02"/><polyline class="cls-27" points="38.02 50.46 0 33.24 0 32.8 38.02 50.02 38.02 50.46"/><polyline class="cls-28" points="38.02 50.89 0 33.68 0 33.24 38.02 50.46 38.02 50.89"/><polyline class="cls-29" points="38.02 51.33 0 34.11 0 33.68 38.02 50.89 38.02 51.33"/><polyline class="cls-30" points="38.02 51.76 0 34.55 0 34.11 38.02 51.33 38.02 51.76"/><polyline class="cls-31" points="38.02 52.2 0 34.98 0 34.55 38.02 51.76 38.02 52.2"/><polyline class="cls-32" points="38.02 52.63 0 35.42 0 34.98 38.02 52.2 38.02 52.63"/><polyline class="cls-33" points="38.02 53.07 0 35.85 0 35.42 38.02 52.63 38.02 53.07"/><polyline class="cls-34" points="38.02 53.51 0 36.29 0 35.85 38.02 53.07 38.02 53.51"/><polyline class="cls-35" points="38.02 53.94 0 36.72 0 36.29 38.02 53.51 38.02 53.94"/><polyline class="cls-36" points="38.02 54.38 0 37.16 0 36.72 38.02 53.94 38.02 54.38"/><polyline class="cls-37" points="38.02 54.81 0 37.59 0 37.16 38.02 54.38 38.02 54.81"/><polyline class="cls-38" points="38.02 55.25 0 38.03 0 37.59 38.02 54.81 38.02 55.25"/><polyline class="cls-39" points="38.02 55.68 0 38.47 0 38.03 38.02 55.25 38.02 55.68"/><polyline class="cls-40" points="38.02 56.12 0 38.9 0 38.47 38.02 55.68 38.02 56.12"/><polyline class="cls-41" points="38.02 56.55 0 39.34 0 38.9 38.02 56.12 38.02 56.55"/><polyline class="cls-42" points="38.02 56.99 0 39.77 0 39.34 38.02 56.55 38.02 56.99"/><polyline class="cls-43" points="38.02 57.42 0 40.21 0 39.77 38.02 56.99 38.02 57.42"/><polyline class="cls-44" points="38.02 57.86 0 40.64 0 40.21 38.02 57.42 38.02 57.86"/><polyline class="cls-45" points="38.02 58.3 0 41.08 0 40.64 38.02 57.86 38.02 58.3"/><polyline class="cls-46" points="38.02 58.73 0 41.51 0 41.08 38.02 58.3 38.02 58.73"/><polyline class="cls-47" points="38.02 59.17 0 41.95 0 41.51 38.02 58.73 38.02 59.17"/><polyline class="cls-48" points="38.02 59.6 0 42.38 0 41.95 38.02 59.17 38.02 59.6"/><polyline class="cls-49" points="38.02 60.04 0 42.82 0 42.38 38.02 59.6 38.02 60.04"/><polyline class="cls-50" points="38.02 60.47 0 43.26 0 42.82 38.02 60.04 38.02 60.47"/><polyline class="cls-51" points="38.02 60.91 0 43.69 0 43.26 38.02 60.47 38.02 60.91"/><polyline class="cls-52" points="38.02 61.34 0 44.13 0 43.69 38.02 60.91 38.02 61.34"/><polyline class="cls-53" points="38.02 61.78 0 44.56 0 44.13 38.02 61.34 38.02 61.78"/><polyline class="cls-54" points="38.02 62.22 0 45 0 44.56 38.02 61.78 38.02 62.22"/><polyline class="cls-55" points="37.38 62.36 0 45.43 0 45 38.02 62.22 38.02 62.36 37.38 62.36"/><polyline class="cls-56" points="36.42 62.36 0 45.87 0 45.43 37.38 62.36 36.42 62.36"/><polyline class="cls-57" points="35.46 62.36 0 46.3 0 45.87 36.42 62.36 35.46 62.36"/><polyline class="cls-58" points="34.49 62.36 0 46.74 0 46.3 35.46 62.36 34.49 62.36"/><polyline class="cls-59" points="33.53 62.36 0 47.17 0 46.74 34.49 62.36 33.53 62.36"/><polyline class="cls-60" points="32.57 62.36 0 47.61 0 47.17 33.53 62.36 32.57 62.36"/><polyline class="cls-61" points="31.61 62.36 0 48.05 0 47.61 32.57 62.36 31.61 62.36"/><polyline class="cls-62" points="30.65 62.36 0 48.48 0 48.05 31.61 62.36 30.65 62.36"/><polyline class="cls-63" points="29.69 62.36 0 48.92 0 48.48 30.65 62.36 29.69 62.36"/><polyline class="cls-64" points="28.73 62.36 0 49.35 0 48.92 29.69 62.36 28.73 62.36"/><polyline class="cls-65" points="27.76 62.36 0 49.79 0 49.35 28.73 62.36 27.76 62.36"/><polyline class="cls-66" points="26.8 62.36 0 50.22 0 49.79 27.76 62.36 26.8 62.36"/><polyline class="cls-67" points="25.84 62.36 0 50.66 0 50.22 26.8 62.36 25.84 62.36"/><polyline class="cls-68" points="24.88 62.36 0 51.09 0 50.66 25.84 62.36 24.88 62.36"/><polyline class="cls-69" points="23.92 62.36 0 51.53 0 51.09 24.88 62.36 23.92 62.36"/><polyline class="cls-70" points="22.96 62.36 0 51.97 0 51.53 23.92 62.36 22.96 62.36"/><polyline class="cls-71" points="22 62.36 0 52.4 0 51.97 22.96 62.36 22 62.36"/><polyline class="cls-72" points="21.03 62.36 0 52.84 0 52.4 22 62.36 21.03 62.36"/><polyline class="cls-73" points="20.07 62.36 0 53.27 0 52.84 21.03 62.36 20.07 62.36"/><polyline class="cls-74" points="19.11 62.36 0 53.71 0 53.27 20.07 62.36 19.11 62.36"/><polyline class="cls-75" points="18.15 62.36 0 54.14 0 53.71 19.11 62.36 18.15 62.36"/><polyline class="cls-76" points="17.19 62.36 0 54.58 0 54.14 18.15 62.36 17.19 62.36"/><polyline class="cls-77" points="16.23 62.36 0 55.01 0 54.58 17.19 62.36 16.23 62.36"/><polyline class="cls-78" points="15.26 62.36 0 55.45 0 55.01 16.23 62.36 15.26 62.36"/><polyline class="cls-78" points="0 55.45 15.26 62.36 0 62.36 0 55.45"/></g><path class="cls-4" d="M.37,60.37l0,0,11.81-36,10.36,38,15,55a6.67,6.67,0,0,1,.49,2.56c0,2.68-1.44,4.85-3.21,4.85l-12.63,0c-1.48,0-2.72-1.52-3.08-3.57L.5,65.25l-.29-.87h0A6.87,6.87,0,0,1,0,62.65c0-.1,0-.19,0-.29A7,7,0,0,1,.37,60.37Z"/><g class="cls-79"><polyline class="cls-4" points="997.76 10.94 960.07 28 960.07 0 997.76 0 997.76 10.94"/><polyline class="cls-4" points="997.76 11.37 960.07 28.44 960.07 28 997.76 10.94 997.76 11.37"/><polyline class="cls-4" points="997.76 11.8 960.07 28.87 960.07 28.44 997.76 11.37 997.76 11.8"/><polyline class="cls-4" points="997.76 12.23 960.07 29.3 960.07 28.87 997.76 11.8 997.76 12.23"/><polyline class="cls-4" points="997.76 12.66 960.07 29.73 960.07 29.3 997.76 12.23 997.76 12.66"/><polyline class="cls-4" points="997.76 13.1 960.07 30.16 960.07 29.73 997.76 12.66 997.76 13.1"/><polyline class="cls-4" points="997.76 13.53 960.07 30.59 960.07 30.16 997.76 13.1 997.76 13.53"/><polyline class="cls-4" points="997.76 13.96 960.07 31.03 960.07 30.59 997.76 13.53 997.76 13.96"/><polyline class="cls-4" points="997.76 14.39 960.07 31.46 960.07 31.03 997.76 13.96 997.76 14.39"/><polyline class="cls-4" points="997.76 14.82 960.07 31.89 960.07 31.46 997.76 14.39 997.76 14.82"/><polyline class="cls-4" points="997.76 15.26 960.07 32.32 960.07 31.89 997.76 14.82 997.76 15.26"/><polyline class="cls-4" points="997.76 15.69 960.07 32.75 960.07 32.32 997.76 15.26 997.76 15.69"/><polyline class="cls-4" points="997.76 16.12 960.07 33.19 960.07 32.75 997.76 15.69 997.76 16.12"/><polyline class="cls-4" points="997.76 16.55 960.07 33.62 960.07 33.19 997.76 16.12 997.76 16.55"/><polyline class="cls-4" points="997.76 16.98 960.07 34.05 960.07 33.62 997.76 16.55 997.76 16.98"/><polyline class="cls-5" points="997.76 17.41 960.07 34.48 960.07 34.05 997.76 16.98 997.76 17.41"/><polyline class="cls-5" points="997.76 17.84 960.07 34.91 960.07 34.48 997.76 17.41 997.76 17.84"/><polyline class="cls-5" points="997.76 18.28 960.07 35.34 960.07 34.91 997.76 17.84 997.76 18.28"/><polyline class="cls-5" points="997.76 18.71 960.07 35.77 960.07 35.34 997.76 18.28 997.76 18.71"/><polyline class="cls-5" points="997.76 19.14 960.07 36.21 960.07 35.77 997.76 18.71 997.76 19.14"/><polyline class="cls-5" points="997.76 19.57 960.07 36.64 960.07 36.21 997.76 19.14 997.76 19.57"/><polyline class="cls-5" points="997.76 20 960.07 37.07 960.07 36.64 997.76 19.57 997.76 20"/><polyline class="cls-6" points="997.76 20.43 960.07 37.5 960.07 37.07 997.76 20 997.76 20.43"/><polyline class="cls-6" points="997.76 20.87 960.07 37.93 960.07 37.5 997.76 20.43 997.76 20.87"/><polyline class="cls-7" points="997.76 21.3 960.07 38.37 960.07 37.93 997.76 20.87 997.76 21.3"/><polyline class="cls-7" points="997.76 21.73 960.07 38.8 960.07 38.37 997.76 21.3 997.76 21.73"/><polyline class="cls-8" points="997.76 22.16 960.07 39.23 960.07 38.8 997.76 21.73 997.76 22.16"/><polyline class="cls-9" points="997.76 22.59 960.07 39.66 960.07 39.23 997.76 22.16 997.76 22.59"/><polyline class="cls-9" points="997.76 23.02 960.07 40.09 960.07 39.66 997.76 22.59 997.76 23.02"/><polyline class="cls-10" points="997.76 23.46 960.07 40.52 960.07 40.09 997.76 23.02 997.76 23.46"/><polyline class="cls-10" points="997.76 23.89 960.07 40.95 960.07 40.52 997.76 23.46 997.76 23.89"/><polyline class="cls-11" points="997.76 24.32 960.07 41.39 960.07 40.95 997.76 23.89 997.76 24.32"/><polyline class="cls-12" points="997.76 24.75 960.07 41.82 960.07 41.39 997.76 24.32 997.76 24.75"/><polyline class="cls-12" points="997.76 25.18 960.07 42.25 960.07 41.82 997.76 24.75 997.76 25.18"/><polyline class="cls-13" points="997.76 25.61 960.07 42.68 960.07 42.25 997.76 25.18 997.76 25.61"/><polyline class="cls-13" points="997.76 26.05 960.07 43.11 960.07 42.68 997.76 25.61 997.76 26.05"/><polyline class="cls-14" points="997.76 26.48 960.07 43.55 960.07 43.11 997.76 26.05 997.76 26.48"/><polyline class="cls-15" points="997.76 26.91 960.07 43.98 960.07 43.55 997.76 26.48 997.76 26.91"/><polyline class="cls-15" points="997.76 27.34 960.07 44.41 960.07 43.98 997.76 26.91 997.76 27.34"/><polyline class="cls-16" points="997.76 27.77 960.07 44.84 960.07 44.41 997.76 27.34 997.76 27.77"/><polyline class="cls-17" points="997.76 28.2 960.07 45.27 960.07 44.84 997.76 27.77 997.76 28.2"/><polyline class="cls-18" points="997.76 28.64 960.07 45.7 960.07 45.27 997.76 28.2 997.76 28.64"/><polyline class="cls-19" points="997.76 29.07 960.07 46.13 960.07 45.7 997.76 28.64 997.76 29.07"/><polyline class="cls-20" points="997.76 29.5 960.07 46.57 960.07 46.13 997.76 29.07 997.76 29.5"/><polyline class="cls-21" points="997.76 29.93 960.07 47 960.07 46.57 997.76 29.5 997.76 29.93"/><polyline class="cls-22" points="997.76 30.36 960.07 47.43 960.07 47 997.76 29.93 997.76 30.36"/><polyline class="cls-23" points="997.76 30.79 960.07 47.86 960.07 47.43 997.76 30.36 997.76 30.79"/><polyline class="cls-24" points="997.76 31.23 960.07 48.29 960.07 47.86 997.76 30.79 997.76 31.23"/><polyline class="cls-24" points="997.76 31.66 960.07 48.72 960.07 48.29 997.76 31.23 997.76 31.66"/><polyline class="cls-25" points="997.76 32.09 960.07 49.16 960.07 48.72 997.76 31.66 997.76 32.09"/><polyline class="cls-26" points="997.76 32.52 960.07 49.59 960.07 49.16 997.76 32.09 997.76 32.52"/><polyline class="cls-27" points="997.76 32.95 960.07 50.02 960.07 49.59 997.76 32.52 997.76 32.95"/><polyline class="cls-28" points="997.76 33.38 960.07 50.45 960.07 50.02 997.76 32.95 997.76 33.38"/><polyline class="cls-29" points="997.76 33.81 960.07 50.88 960.07 50.45 997.76 33.38 997.76 33.81"/><polyline class="cls-30" points="997.76 34.25 960.07 51.31 960.07 50.88 997.76 33.81 997.76 34.25"/><polyline class="cls-31" points="997.76 34.68 960.07 51.75 960.07 51.31 997.76 34.25 997.76 34.68"/><polyline class="cls-32" points="997.76 35.11 960.07 52.18 960.07 51.75 997.76 34.68 997.76 35.11"/><polyline class="cls-33" points="997.76 35.54 960.07 52.61 960.07 52.18 997.76 35.11 997.76 35.54"/><polyline class="cls-34" points="997.76 35.97 960.07 53.04 960.07 52.61 997.76 35.54 997.76 35.97"/><polyline class="cls-35" points="997.76 36.41 960.07 53.47 960.07 53.04 997.76 35.97 997.76 36.41"/><polyline class="cls-36" points="997.76 36.84 960.07 53.9 960.07 53.47 997.76 36.41 997.76 36.84"/><polyline class="cls-37" points="997.76 37.27 960.07 54.34 960.07 53.9 997.76 36.84 997.76 37.27"/><polyline class="cls-38" points="997.76 37.7 960.07 54.77 960.07 54.34 997.76 37.27 997.76 37.7"/><polyline class="cls-39" points="997.76 38.13 960.07 55.2 960.07 54.77 997.76 37.7 997.76 38.13"/><polyline class="cls-40" points="997.76 38.56 960.07 55.63 960.07 55.2 997.76 38.13 997.76 38.56"/><polyline class="cls-41" points="997.76 38.99 960.07 56.06 960.07 55.63 997.76 38.56 997.76 38.99"/><polyline class="cls-42" points="997.76 39.43 960.07 56.49 960.07 56.06 997.76 38.99 997.76 39.43"/><polyline class="cls-43" points="997.76 39.86 960.07 56.93 960.07 56.49 997.76 39.43 997.76 39.86"/><polyline class="cls-44" points="997.76 40.29 960.07 57.36 960.07 56.93 997.76 39.86 997.76 40.29"/><polyline class="cls-45" points="997.76 40.72 960.07 57.79 960.07 57.36 997.76 40.29 997.76 40.72"/><polyline class="cls-46" points="997.76 41.15 960.07 58.22 960.07 57.79 997.76 40.72 997.76 41.15"/><polyline class="cls-47" points="997.76 41.59 960.07 58.65 960.07 58.22 997.76 41.15 997.76 41.59"/><polyline class="cls-48" points="997.76 42.02 960.07 59.08 960.07 58.65 997.76 41.59 997.76 42.02"/><polyline class="cls-49" points="997.76 42.45 960.07 59.52 960.07 59.08 997.76 42.02 997.76 42.45"/><polyline class="cls-50" points="997.76 42.88 960.07 59.95 960.07 59.52 997.76 42.45 997.76 42.88"/><polyline class="cls-51" points="997.76 43.31 960.07 60.38 960.07 59.95 997.76 42.88 997.76 43.31"/><polyline class="cls-52" points="997.76 43.74 960.07 60.81 960.07 60.38 997.76 43.31 997.76 43.74"/><polyline class="cls-53" points="997.76 44.17 960.07 61.24 960.07 60.81 997.76 43.74 997.76 44.17"/><polyline class="cls-54" points="997.76 44.61 960.07 61.67 960.07 61.24 997.76 44.17 997.76 44.61"/><polyline class="cls-55" points="997.76 45.04 960.71 61.82 960.07 61.82 960.07 61.67 997.76 44.61 997.76 45.04"/><polyline class="cls-56" points="997.76 45.47 961.66 61.82 960.71 61.82 997.76 45.04 997.76 45.47"/><polyline class="cls-57" points="997.76 45.9 962.61 61.82 961.66 61.82 997.76 45.47 997.76 45.9"/><polyline class="cls-58" points="997.76 46.33 963.57 61.82 962.61 61.82 997.76 45.9 997.76 46.33"/><polyline class="cls-59" points="997.76 46.77 964.52 61.82 963.57 61.82 997.76 46.33 997.76 46.77"/><polyline class="cls-60" points="997.76 47.2 965.47 61.82 964.52 61.82 997.76 46.77 997.76 47.2"/><polyline class="cls-61" points="997.76 47.63 966.42 61.82 965.47 61.82 997.76 47.2 997.76 47.63"/><polyline class="cls-62" points="997.76 48.06 967.38 61.82 966.42 61.82 997.76 47.63 997.76 48.06"/><polyline class="cls-63" points="997.76 48.49 968.33 61.82 967.38 61.82 997.76 48.06 997.76 48.49"/><polyline class="cls-64" points="997.76 48.92 969.28 61.82 968.33 61.82 997.76 48.49 997.76 48.92"/><polyline class="cls-65" points="997.76 49.35 970.24 61.82 969.28 61.82 997.76 48.92 997.76 49.35"/><polyline class="cls-66" points="997.76 49.79 971.19 61.82 970.24 61.82 997.76 49.35 997.76 49.79"/><polyline class="cls-67" points="997.76 50.22 972.14 61.82 971.19 61.82 997.76 49.79 997.76 50.22"/><polyline class="cls-68" points="997.76 50.65 973.1 61.82 972.14 61.82 997.76 50.22 997.76 50.65"/><polyline class="cls-69" points="997.76 51.08 974.05 61.82 973.1 61.82 997.76 50.65 997.76 51.08"/><polyline class="cls-70" points="997.76 51.51 975 61.82 974.05 61.82 997.76 51.08 997.76 51.51"/><polyline class="cls-71" points="997.76 51.95 975.96 61.82 975 61.82 997.76 51.51 997.76 51.95"/><polyline class="cls-72" points="997.76 52.38 976.91 61.82 975.96 61.82 997.76 51.95 997.76 52.38"/><polyline class="cls-73" points="997.76 52.81 977.86 61.82 976.91 61.82 997.76 52.38 997.76 52.81"/><polyline class="cls-74" points="997.76 53.24 978.82 61.82 977.86 61.82 997.76 52.81 997.76 53.24"/><polyline class="cls-75" points="997.76 53.67 979.77 61.82 978.82 61.82 997.76 53.24 997.76 53.67"/><polyline class="cls-76" points="997.76 54.1 980.72 61.82 979.77 61.82 997.76 53.67 997.76 54.1"/><polyline class="cls-77" points="997.76 54.53 981.68 61.82 980.72 61.82 997.76 54.1 997.76 54.53"/><polyline class="cls-78" points="997.76 54.97 982.63 61.82 981.68 61.82 997.76 54.53 997.76 54.97"/><polyline class="cls-78" points="982.63 61.82 997.76 54.97 997.76 61.82 982.63 61.82"/></g><path class="cls-4" d="M997.39,59.85v0L985.66,24.16,975.4,61.82l-14.85,54.47a6.76,6.76,0,0,0-.48,2.54c0,2.65,1.43,4.81,3.19,4.81l12.51,0c1.47,0,2.7-1.5,3.06-3.53l18.43-55.38.29-.86h0a6.73,6.73,0,0,0,.21-1.71c0-.1,0-.19,0-.28A6.76,6.76,0,0,0,997.39,59.85Z"/><path class="cls-2" d="M109.83,123.6s36.88,4.4,39.36-19.08H130.25S132.41,120.11,109.83,123.6Z"/><path class="cls-2" d="M130.25,104.52s-12.45,8-20.42,0V123.6S132.16,122.73,130.25,104.52Z"/></svg>